<svg id="Layer_1" data-name="Layer 1" xmlns="http://www.w3.org/2000/svg" viewBox="0 0 48 48"><defs><style>.cls-1{fill:#e8f6fc;}.cls-2{fill:#0580c1;}</style></defs><title>avatar</title><rect class="cls-1" width="48" height="48"/><path class="cls-2" d="M18.86,29.08a2.28,2.28,0,0,1-1.16-2,6.36,6.36,0,0,1,6.35-6.35h2.62l.12-2H12L13,36.28a.77.77,0,0,0,.76.72h4.68a3.8,3.8,0,0,1-.77-2.29,2.28,2.28,0,0,1,1.51-2.14,3.05,3.05,0,0,1-.49-1.66,3,3,0,0,1,.49-1.66C19,29.19,18.83,29.13,18.86,29.08Z"/><path class="cls-2" d="M19.38,17.2H27a.77.77,0,0,0,.76-.77.76.76,0,0,0-.76-.76H20.79l2.05-3.15h2.63a.76.76,0,1,0,0-1.52h-3a.75.75,0,0,0-.64.35L19,15.67H11.76a.76.76,0,0,0-.76.76.77.77,0,0,0,.76.77Z"/><path class="cls-2" d="M19.23,27.1a.76.76,0,0,0,.76.76H36.24A.76.76,0,0,0,37,27.1a4.83,4.83,0,0,0-4.82-4.83H24.05A4.83,4.83,0,0,0,19.23,27.1Z"/><path class="cls-2" d="M21.77,29.38a1.53,1.53,0,1,0,0,3.05H34.46a1.53,1.53,0,0,0,0-3.05Z"/><path class="cls-2" d="M36.24,34H20a.76.76,0,0,0-.76.76A2.29,2.29,0,0,0,21.51,37h13.2A2.3,2.3,0,0,0,37,34.71.76.76,0,0,0,36.24,34Z"/></svg>
