<?xml version="1.0" encoding="utf-8"?>
<!-- Generator: Adobe Illustrator 21.1.0, SVG Export Plug-In . SVG Version: 6.00 Build 0)  -->
<svg version="1.1" id="Layer_1" xmlns="http://www.w3.org/2000/svg" xmlns:xlink="http://www.w3.org/1999/xlink" x="0px" y="0px"
	 viewBox="0 0 512 512" style="enable-background:new 0 0 512 512;" xml:space="preserve">
<style type="text/css">
	.st0{fill:#FFC10C;}
	.st1{fill:#56ACE0;}
	.st2{fill:#174C7D;}
</style>
<g>
	<path class="st0" d="M496.1,160c0,30.9-17.1,56-48,56s-48-25.1-48-56s17.1-72,48-72S496.1,129,496.1,160z"/>
	<circle class="st1" cx="256.1" cy="288" r="136"/>
	<circle class="st0" cx="256.1" cy="288" r="64"/>
	<path class="st2" d="M128,168V88c0-8.8-7.2-16-16-16s-16,7.2-16,16v80c0,8.8-7.2,16-16,16V88c0-8.8-7.2-16-16-16s-16,7.2-16,16v96
		c-8.8,0-16-7.2-16-16V88c0-8.8-7.2-16-16-16S0,79.1,0,88v80c0,26.5,21.5,48,48,48v192c0,8.8,7.2,16,16,16s16-7.2,16-16V216
		C106.5,216,128,194.5,128,168z"/>
	<path class="st2" d="M448.1,72c-68.4,0-93.8,138.8-16,158.1v178c0,8.8,7.2,16,16,16s16-7.2,16-16v-178
		C541.9,210.8,516.5,72,448.1,72z M448.1,200c-51.6,0-32.4-96,0-96S499.6,200,448.1,200z"/>
	<path class="st2" d="M256.1,136c-83.8,0-152,68.2-152,152s68.2,152,152,152s152-68.2,152-152S339.9,136,256.1,136z M256.1,408
		c-66.2,0-120-53.8-120-120s53.8-120,120-120s120,53.8,120,120S322.2,408,256.1,408z"/>
	<path class="st2" d="M256.1,208c-44.1,0-80,35.9-80,80s35.9,80,80,80s80-35.9,80-80S300.2,208,256.1,208z M256.1,336
		c-26.5,0-48-21.5-48-48s21.5-48,48-48s48,21.5,48,48S282.5,336,256.1,336z"/>
</g>
</svg>
