<?xml version="1.0" encoding="utf-8"?>
<!-- Generator: Adobe Illustrator 21.1.0, SVG Export Plug-In . SVG Version: 6.00 Build 0)  -->
<svg version="1.1" id="Layer_1" xmlns="http://www.w3.org/2000/svg" xmlns:xlink="http://www.w3.org/1999/xlink" x="0px" y="0px"
	 viewBox="0 0 512 512" style="enable-background:new 0 0 512 512;" xml:space="preserve">
<style type="text/css">
	.st0{fill:#174C7D;}
	.st1{fill:#FFFFFF;}
	.st2{fill:#FFC10C;}
	.st3{fill:#56ACE0;}
</style>
<g>
	<path class="st0" d="M363.7,248.9c33.2,0,66.1,0,100,0c-1.7-1.8-2.8-3.1-4-4.3c-11.2-11.2-22.3-22.4-33.5-33.5
		c-3.5-3.5-5.7-7.5-5.1-12.6c0.6-5.5,3.6-9.5,8.8-11.3c5.7-2,10.9-0.9,15.3,3.5c10.6,10.6,21.2,21.1,31.8,31.7
		c9.6,9.6,19.2,19.3,28.8,28.9c8.1,8.2,8.2,15.5,0.2,23.5c-19.9,20-39.9,40-59.9,59.9c-4.5,4.5-9.6,6.8-15.9,4.4
		c-5.3-2-8.5-5.9-9.1-11.6c-0.5-4.9,1.5-8.8,4.9-12.1c11.2-11.1,22.4-22.3,33.5-33.5c1.2-1.2,2.4-2.6,4.3-4.6c-34,0-66.9,0-100.2,0
		c-0.1,2.5-0.4,5-0.4,7.4c0,60.2,0.1,120.4-0.1,180.6c0,6.6-0.8,13.6-3,19.7c-6.1,16.9-21.9,26.9-41,26.9c-48.6,0.1-97.2,0-145.8,0
		c-43,0-86.1,0-129.1,0c-21,0-37.6-12.4-42.5-31.8c-1.1-4.2-1.5-8.6-1.5-12.9C0,326.5,0,185.7,0,45C0,18.2,18.2,0,45,0
		c91.1,0,182.3,0,273.4,0C345,0,363,17.6,363.2,44.4c0.2,38.2,0.1,76.3,0.1,114.5c0,28.4,0,56.8,0.1,85.2
		C363.4,245.7,363.6,247.1,363.7,248.9z M27.8,256L27.8,256c0,19,0,38,0,57c0,49.4,0,98.8,0,148.3c0,11.1,7.3,17.4,18.4,15.8
		c3.1-0.5,6.2-1.3,9.4-1.9c36.3-7.5,72.6-15,108.9-22.5c9.9-2.1,14.1-7.1,14.1-16.6c0-119.5,0-239,0-358.5c0-10.9-3.9-16-14.2-18.1
		C124.9,51.2,85.5,43.2,46,35.1c-4.6-1-9-0.5-12.8,2.7c-4.4,3.7-5.4,8.5-5.4,14C27.8,119.9,27.8,188,27.8,256z M155.8,483
		c0.1,0.3,0.1,0.6,0.2,0.9c55.1,0,110.2,0,165.4,0c6.5,0,11.8-4,13.2-10.4c1-4.3,1-9,1-13.5c0.1-67.6,0-135.1,0-202.7
		c0-70.9,0-141.9,0-212.8c0-10.7-5.9-16.5-16.6-16.5c-53.1,0-106.2,0-159.3,0c-1.5,0-3,0.1-4.6,0.2c5,1.8,10.1,2.8,15.1,3.8
		c22.7,4.7,36.4,21.5,36.4,44.6c0,120,0,240,0,360c0,20.5-13.2,37.5-33.3,42.4C167.5,480.6,161.7,481.7,155.8,483z"/>
	<path class="st1" d="M27.8,256c0-68.1,0-136.2,0-204.2c0-5.5,1.1-10.3,5.4-14c3.8-3.2,8.2-3.7,12.8-2.7
		c39.4,8.1,78.9,16.1,118.3,24.3c10.3,2.1,14.2,7.3,14.2,18.1c0,119.5,0,239,0,358.5c0,9.5-4.1,14.6-14.1,16.6
		c-36.3,7.5-72.6,15-108.9,22.5c-3.1,0.6-6.2,1.5-9.4,1.9c-11.1,1.6-18.4-4.7-18.4-15.8c0-49.4,0-98.8,0-148.3
		C27.9,294,27.9,275,27.8,256L27.8,256z"/>
	<path class="st2" d="M155.8,483c5.8-1.3,11.7-2.5,17.5-3.9c20.1-5,33.3-21.9,33.3-42.4c0-120,0-240,0-360
		c0-23.2-13.6-39.9-36.4-44.6c-5-1-10.1-2-15.1-3.8c1.5-0.1,3-0.2,4.6-0.2c53.1,0,106.2,0,159.3,0c10.6,0,16.5,5.8,16.6,16.5
		c0,70.9,0,141.9,0,212.8c0,67.6,0,135.1,0,202.7c0,4.5,0,9.1-1,13.5c-1.4,6.4-6.7,10.4-13.2,10.4c-55.1,0.1-110.2,0-165.4,0
		C155.9,483.6,155.9,483.3,155.8,483z"/>
	<path d="M108.9,255.8c0-8.6-0.2-17.1,0-25.7c0.2-7.3,4.3-12.7,10.6-14.3c5.8-1.5,12.3,0.7,15.4,5.9c1.4,2.4,2.5,5.3,2.5,8
		c0.3,17.4,0.4,34.9,0.2,52.3c-0.1,7.5-4.9,12.9-11.3,14.2c-6.3,1.3-12.9-1.7-15.5-7.6c-1.2-2.8-1.7-6.1-1.8-9.3
		C108.8,271.6,109,263.7,108.9,255.8C109,255.8,109,255.8,108.9,255.8z"/>
	<path class="st3" d="M57,66.6c31.2,6.5,61.8,12.9,92.5,19.3c0,113.5,0,226.7,0,340.3c-30.8,6.4-61.5,12.7-92.5,19.2
		C57,318.8,57,193.1,57,66.6z"/>
	<path class="st0" d="M108.9,255.8C109,255.8,109,255.8,108.9,255.8c0.1,7.9-0.1,15.8,0.1,23.7c0.1,3.1,0.5,6.4,1.8,9.3
		c2.6,5.9,9.2,8.8,15.5,7.6c6.4-1.3,11.2-6.7,11.3-14.2c0.2-17.4,0.1-34.9-0.2-52.3c0-2.7-1.1-5.7-2.5-8c-3.1-5.2-9.6-7.4-15.4-5.9
		c-6.2,1.7-10.4,7-10.6,14.3C108.8,238.7,108.9,247.2,108.9,255.8z"/>
</g>
</svg>
